<svg width="14" height="16" viewBox="0 0 14 16" fill="none" xmlns="http://www.w3.org/2000/svg">
<path d="M13.0848 5.45495C12.9922 5.52695 11.357 6.45024 11.357 8.50325C11.357 10.8779 13.4377 11.718 13.5 11.7388C13.4904 11.79 13.1695 12.8893 12.403 14.0094C11.7195 14.9951 11.0057 15.9792 9.91985 15.9792C8.83399 15.9792 8.55454 15.3471 7.30101 15.3471C6.07941 15.3471 5.64507 16 4.65182 16C3.65858 16 2.96554 15.0879 2.16871 13.9678C1.24573 12.6525 0.5 10.6091 0.5 8.66967C0.5 5.55896 2.51843 3.90919 4.50491 3.90919C5.56044 3.90919 6.4403 4.60366 7.103 4.60366C7.73376 4.60366 8.71742 3.86759 9.91825 3.86759C10.3734 3.86759 12.0085 3.90919 13.0848 5.45495ZM9.34818 2.55065C9.8448 1.9602 10.1961 1.14091 10.1961 0.321632C10.1961 0.208021 10.1865 0.0928093 10.1658 0C9.35776 0.030403 8.39645 0.539254 7.81679 1.21292C7.36169 1.73137 6.93692 2.55065 6.93692 3.38114C6.93692 3.50595 6.95768 3.63076 6.96727 3.67077C7.01836 3.68037 7.1014 3.69157 7.18444 3.69157C7.90941 3.69157 8.82121 3.20512 9.34818 2.55065Z" fill="black"/>
</svg>
