<svg width="18" height="15" viewBox="0 0 18 15" fill="none" xmlns="http://www.w3.org/2000/svg">
<path d="M13.071 0.750135V0.750159L13.0771 0.75012C13.6404 0.746525 14.1979 0.850826 14.7155 1.0558C15.2324 1.2605 15.6975 1.56082 16.0841 1.93668C16.8468 2.68747 17.2603 3.68248 17.2498 4.70604C17.2393 5.73029 16.8049 6.71862 16.0256 7.45595L16.0256 7.45601L15.522 7.93258L15.5218 7.9328L9.00265 14.1074L1.97437 7.45861C1.97435 7.45859 1.97434 7.45858 1.97433 7.45857C1.19506 6.72125 0.760672 5.73294 0.750194 4.7087C0.739723 3.68508 1.15329 2.69001 1.91603 1.9392C2.30341 1.56211 2.76974 1.26088 3.28807 1.05571C3.80701 0.850305 4.36593 0.746024 4.93073 0.750116V0.750146L4.93743 0.750135C6.12166 0.748143 7.25069 1.19112 8.07873 1.97001C8.07898 1.97024 8.07923 1.97048 8.07948 1.97071L8.4887 2.35799L9.00422 2.84586L9.51974 2.35799L9.92896 1.97071C9.92919 1.97049 9.92942 1.97028 9.92965 1.97006C10.7577 1.19113 11.8868 0.748143 13.071 0.750135Z" fill="#c8cbcc" stroke="#c8cbcc" stroke-width="1.5"/>
</svg>
