<svg width="20" height="21" viewBox="0 0 20 21" fill="none" xmlns="http://www.w3.org/2000/svg">
<path d="M10 2.78438C12.6667 2.78438 12.9833 2.79271 14.0417 2.84271C16.75 2.96771 18.0167 4.25104 18.1417 6.94271C18.1917 8.00104 18.2 8.31771 18.2 10.9844C18.2 13.651 18.1917 13.9677 18.1417 15.026C18.0167 17.7177 16.7583 19.001 14.0417 19.126C12.9833 19.176 12.675 19.1844 10 19.1844C7.33333 19.1844 7.01667 19.176 5.95833 19.126C3.24167 19.001 1.98333 17.7094 1.85833 15.026C1.80833 13.9677 1.8 13.6594 1.8 10.9844C1.8 8.31771 1.80833 8.00104 1.85833 6.94271C1.98333 4.25104 3.25 2.96771 5.95833 2.84271C7.01667 2.80104 7.33333 2.78438 10 2.78438ZM10 0.984375C7.28333 0.984375 6.94167 0.992708 5.875 1.04271C2.25 1.20937 0.225 3.22604 0.0583333 6.85938C0.00833333 7.92604 0 8.26771 0 10.9844C0 13.701 0.00833333 14.0427 0.0583333 15.1094C0.225 18.7427 2.24167 20.7594 5.875 20.926C6.94167 20.976 7.28333 20.9844 10 20.9844C12.7167 20.9844 13.0583 20.976 14.125 20.926C17.75 20.7594 19.775 18.7427 19.9417 15.1094C19.9917 14.0427 20 13.701 20 10.9844C20 8.26771 19.9917 7.92604 19.9417 6.85938C19.775 3.23438 17.7583 1.20937 14.125 1.04271C13.0583 0.992708 12.7167 0.984375 10 0.984375ZM10 5.85104C7.16667 5.85104 4.86667 8.15104 4.86667 10.9844C4.86667 13.8177 7.16667 16.1177 10 16.1177C12.8333 16.1177 15.1333 13.8177 15.1333 10.9844C15.1333 8.15104 12.8333 5.85104 10 5.85104ZM10 14.3177C8.15833 14.3177 6.66667 12.826 6.66667 10.9844C6.66667 9.14271 8.15833 7.65104 10 7.65104C11.8417 7.65104 13.3333 9.14271 13.3333 10.9844C13.3333 12.826 11.8417 14.3177 10 14.3177ZM15.3417 4.44271C14.675 4.44271 14.1417 4.97604 14.1417 5.64271C14.1417 6.30937 14.6833 6.84271 15.3417 6.84271C16.0083 6.84271 16.5417 6.30937 16.5417 5.64271C16.5417 4.97604 16 4.44271 15.3417 4.44271Z" fill="white"/>
</svg>
