<svg width="114" height="124" viewBox="0 0 114 124" fill="none" xmlns="http://www.w3.org/2000/svg">
<rect x="3.45325" y="3.2002" width="106.786" height="117.6" stroke="black"/>
<path d="M3.45325 119.907V120.407H3.95325H46.3051C66.9943 120.407 82.8317 114.88 93.4988 104.716C104.169 94.5498 109.597 79.8096 109.597 61.5279V60.2234C109.597 42.0251 104.293 27.6476 93.6982 17.8251C83.1098 8.00827 67.3128 2.81152 46.4687 2.81152L3.95325 2.81152H3.45325V3.31152L3.45325 119.907ZM38.1385 93.6422V29.5768H44.997C55.0672 29.5768 62.1787 31.9258 66.7867 36.9172C71.4033 41.918 73.6037 49.6738 73.6037 60.7126V62.0172C73.6037 72.8078 71.4047 80.6937 66.8203 85.8818C62.2475 91.0566 55.2154 93.6422 45.324 93.6422H38.1385Z" fill="#F8F8F8" stroke="black"/>
<path d="M7.34183 120.298C7.34183 122.165 5.82374 123.681 3.94922 123.681C2.0747 123.681 0.556602 122.165 0.556602 120.298C0.556602 118.431 2.0747 116.916 3.94922 116.916C5.82374 116.916 7.34183 118.431 7.34183 120.298Z" fill="#F8F8F8" stroke="black" stroke-width="0.63835"/>
<path d="M7.34183 3.70256C7.34183 5.56979 5.82374 7.08497 3.94922 7.08497C2.0747 7.08497 0.556602 5.56979 0.556602 3.70256C0.556602 1.83534 2.0747 0.320152 3.94922 0.320152C5.82374 0.320152 7.34183 1.83534 7.34183 3.70256Z" fill="#F8F8F8" stroke="black" stroke-width="0.63835"/>
<path d="M40.7476 29.6117C40.7476 31.479 39.2295 32.9941 37.355 32.9941C35.4805 32.9941 33.9624 31.479 33.9624 29.6117C33.9624 27.7445 35.4805 26.2293 37.355 26.2293C39.2295 26.2293 40.7476 27.7445 40.7476 29.6117Z" fill="#F8F8F8" stroke="black" stroke-width="0.63835"/>
<path d="M55.5935 120.298C55.5935 122.165 54.0754 123.681 52.2009 123.681C50.3264 123.681 48.8083 122.165 48.8083 120.298C48.8083 118.431 50.3264 116.916 52.2009 116.916C54.0754 116.916 55.5935 118.431 55.5935 120.298Z" fill="#F8F8F8" stroke="black" stroke-width="0.63835"/>
<path d="M55.5943 3.70158C55.5943 5.56881 54.0762 7.08399 52.2017 7.08399C50.3271 7.08399 48.809 5.56881 48.809 3.70158C48.809 1.83436 50.3271 0.319175 52.2017 0.319175C54.0762 0.319175 55.5943 1.83436 55.5943 3.70158Z" fill="#F8F8F8" stroke="black" stroke-width="0.63835"/>
<path d="M77.8693 59.226C77.8693 61.0932 76.3512 62.6084 74.4767 62.6084C72.6022 62.6084 71.0841 61.0932 71.0841 59.226C71.0841 57.3588 72.6022 55.8436 74.4767 55.8436C76.3512 55.8436 77.8693 57.3588 77.8693 59.226Z" fill="#F8F8F8" stroke="black" stroke-width="0.63835"/>
<path d="M113.444 59.226C113.444 61.0932 111.925 62.6084 110.051 62.6084C108.176 62.6084 106.658 61.0932 106.658 59.226C106.658 57.3588 108.176 55.8436 110.051 55.8436C111.925 55.8436 113.444 57.3588 113.444 59.226Z" fill="#F8F8F8" stroke="black" stroke-width="0.63835"/>
<path d="M113.443 3.70158C113.443 5.56881 111.925 7.08399 110.051 7.08399C108.176 7.08399 106.658 5.56881 106.658 3.70158C106.658 1.83436 108.176 0.319175 110.051 0.319175C111.925 0.319175 113.443 1.83436 113.443 3.70158Z" fill="#F8F8F8" stroke="black" stroke-width="0.63835"/>
<path d="M113.444 120.298C113.444 122.165 111.925 123.681 110.051 123.681C108.176 123.681 106.658 122.165 106.658 120.298C106.658 118.431 108.176 116.916 110.051 116.916C111.925 116.916 113.444 118.431 113.444 120.298Z" fill="#F8F8F8" stroke="black" stroke-width="0.63835"/>
<path d="M40.7481 94.391C40.7481 96.2583 39.23 97.7734 37.3555 97.7734C35.4809 97.7734 33.9629 96.2583 33.9629 94.391C33.9629 92.5238 35.4809 91.0086 37.3555 91.0086C39.23 91.0086 40.7481 92.5238 40.7481 94.391Z" fill="#F8F8F8" stroke="black" stroke-width="0.63835"/>
</svg>
