<svg width="15" height="19" viewBox="0 0 15 19" fill="none" xmlns="http://www.w3.org/2000/svg">
<path d="M12.3126 2.82893C11.0736 1.63948 9.35891 0.984375 7.48448 0.984375C4.6212 0.984375 2.86015 2.15807 1.88702 3.14263C0.687694 4.35598 0 5.96709 0 7.56291C0 9.56658 0.838093 11.1045 2.24157 11.6766C2.33579 11.7152 2.43061 11.7346 2.52356 11.7346C2.81965 11.7346 3.05425 11.5409 3.13553 11.2301C3.18292 11.0519 3.29268 10.612 3.34042 10.4211C3.44258 10.044 3.36004 9.86266 3.13722 9.60008C2.7313 9.11977 2.54226 8.55182 2.54226 7.81266C2.54226 5.61711 4.17711 3.28371 7.20713 3.28371C9.61134 3.28371 11.1048 4.65017 11.1048 6.84976C11.1048 8.23781 10.8058 9.52326 10.2627 10.4695C9.88538 11.127 9.2218 11.9107 8.20311 11.9107C7.7626 11.9107 7.36688 11.7298 7.1172 11.4143C6.88134 11.1161 6.80357 10.7308 6.89846 10.3293C7.00561 9.87564 7.15176 9.40243 7.29319 8.94498C7.55114 8.10945 7.79498 7.32029 7.79498 6.69068C7.79498 5.61377 7.13292 4.89014 6.14766 4.89014C4.89553 4.89014 3.91456 6.16189 3.91456 7.78541C3.91456 8.58164 4.12617 9.17719 4.22197 9.40584C4.06422 10.0742 3.12674 14.0475 2.94892 14.7968C2.84609 15.2342 2.2267 18.6888 3.2519 18.9642C4.40376 19.2737 5.43338 15.9092 5.53819 15.529C5.62312 15.2198 5.9203 14.0506 6.10241 13.3319C6.65848 13.8675 7.55381 14.2296 8.42498 14.2296C10.0673 14.2296 11.5443 13.4906 12.5839 12.1487C13.5922 10.8473 14.1475 9.03326 14.1475 7.04115C14.1474 5.4838 13.4786 3.94845 12.3126 2.82893Z" fill="white"/>
</svg>
