<svg width="20" height="18" viewBox="0 0 20 18" fill="none" xmlns="http://www.w3.org/2000/svg">
<path d="M20 2.90937C19.2667 3.23438 18.475 3.45937 17.6417 3.55937C18.4917 3.05104 19.1417 2.25104 19.45 1.29271C18.6583 1.75937 17.775 2.10104 16.8417 2.29271C16.0917 1.48438 15.025 0.984375 13.85 0.984375C11.2 0.984375 9.25833 3.45938 9.85 6.02604C6.44167 5.85104 3.41667 4.21771 1.39167 1.73437C0.316667 3.57604 0.833333 5.99271 2.65833 7.21771C1.99167 7.19271 1.35833 7.00938 0.8 6.70104C0.758333 8.60104 2.11667 10.376 4.09167 10.776C3.51667 10.9344 2.88333 10.9677 2.24167 10.8427C2.76667 12.476 4.275 13.6594 6.075 13.6927C4.35 15.051 2.175 15.651 0 15.3927C1.81667 16.5594 3.975 17.2344 6.29167 17.2344C13.9083 17.2344 18.2167 10.801 17.95 5.02604C18.75 4.45104 19.45 3.73438 20 2.90937Z" fill="white"/>
</svg>
